<svg width="138" height="79" viewBox="0 0 138 79" fill="none" xmlns="http://www.w3.org/2000/svg">
<g clip-path="url(#clip0_991_1161)">
<g filter="url(#filter0_i_991_1161)">
<path d="M66.3759 27.1705C67.0046 29.0606 66.8569 31.123 65.9653 32.9043C65.0737 34.6855 63.5112 36.0398 61.6213 36.6693C61.1449 36.8283 60.6536 36.9386 60.1549 36.9986L63.34 46.554L53.1054 49.9604C53.3059 48.7594 53.2069 47.5275 52.8172 46.3739C51.5102 42.4375 47.2548 40.3124 43.3184 41.6193C42.0923 42.0294 40.9926 42.7487 40.1257 43.7078C39.2587 44.6669 38.6538 45.8334 38.3693 47.0946C38.0848 48.3557 38.1303 49.669 38.5015 50.9074C38.8727 52.1458 39.557 53.2676 40.4883 54.1644L30.2588 57.5708L21.6193 31.6317C21.3065 30.6938 21.1817 29.7035 21.2519 28.7173C21.3221 27.7311 21.586 26.7685 22.0286 25.8844C22.4711 25.0003 23.0836 24.212 23.8309 23.5648C24.5783 22.9176 25.4459 22.424 26.3842 22.1123L52.3232 13.4728L55.5032 23.0282C56.4692 22.4762 57.5456 22.1451 58.6549 22.0588C59.7643 21.9725 60.8789 22.1333 61.9187 22.5294C62.9584 22.9255 63.8974 23.5472 64.6682 24.3497C65.4389 25.1522 66.0221 26.1156 66.3759 27.1705Z" fill="url(#paint0_linear_991_1161)"/>
</g>
<path d="M66.376 27.1704C66.0241 26.1127 65.4412 25.1465 64.6696 24.3419C63.8979 23.5373 62.9569 22.9146 61.9148 22.5188C62.8649 23.4088 63.5676 24.5303 63.954 25.7735C64.3405 27.0167 64.3975 28.3389 64.1195 29.6107C63.8415 30.8826 63.238 32.0604 62.368 33.0289C61.4981 33.9974 60.3915 34.7234 59.1567 35.1358C58.682 35.2949 58.1924 35.4052 57.6954 35.4652L60.8753 45.0206L53.1158 47.6037C53.2385 48.3847 53.235 49.1804 53.1055 49.9604L63.3401 46.554L60.155 36.9986C60.6537 36.9386 61.145 36.8283 61.6215 36.6692C63.5113 36.0398 65.0738 34.6855 65.9654 32.9043C66.857 31.123 67.0047 29.0606 66.376 27.1704Z" fill="#DE5C0A"/>
<g filter="url(#filter1_ii_991_1161)">
<path d="M105.385 63.9822H94.7951C95.2596 65.0035 95.4894 66.1159 95.4677 67.2376C95.4461 68.3594 95.1734 69.4621 94.6698 70.4647C94.1661 71.4672 93.4443 72.3443 92.5574 73.0314C91.6704 73.7185 90.6408 74.1983 89.5441 74.4354C88.4475 74.6725 87.3117 74.6609 86.2201 74.4016C85.1285 74.1422 84.1088 73.6417 83.236 72.9367C82.3632 72.2317 81.6594 71.3402 81.1762 70.3275C80.6931 69.3149 80.4428 68.2069 80.444 67.085C80.4413 66.0146 80.6695 64.9563 81.1129 63.9822H70.5181V53.9122C71.6089 54.1329 72.7351 54.1085 73.8154 53.8408C74.8956 53.573 75.9029 53.0686 76.7643 52.364C77.6258 51.6594 78.32 50.7721 78.7966 49.7665C79.2733 48.7608 79.5206 47.6618 79.5206 46.5488C79.5206 45.4359 79.2733 44.3369 78.7966 43.3312C78.32 42.3255 77.6258 41.4383 76.7643 40.7337C75.9029 40.029 74.8956 39.5246 73.8154 39.2569C72.7351 38.9891 71.6089 38.9647 70.5181 39.1854V29.1155H97.8567C98.8453 29.1155 99.8242 29.3102 100.738 29.6885C101.651 30.0668 102.481 30.6213 103.18 31.3204C103.879 32.0194 104.433 32.8493 104.812 33.7627C105.19 34.676 105.385 35.6549 105.385 36.6435V63.9822Z" fill="#67BAEB"/>
</g>
<path d="M59.8924 81.4155C59.8924 83.4071 60.6832 85.3172 62.0909 86.7259C63.4987 88.1347 65.4082 88.9268 67.3998 88.9281C68.4762 88.9304 69.5402 88.6987 70.5181 88.2489V98.8489H43.1794C41.1828 98.8489 39.2681 98.0558 37.8563 96.644C36.4445 95.2322 35.6514 93.3174 35.6514 91.3209V63.9822H46.4366C45.834 62.8373 45.5374 61.5561 45.5753 60.2629C45.6133 58.9696 45.9847 57.7081 46.6534 56.6005C47.3221 55.4929 48.2655 54.5768 49.3923 53.9409C50.519 53.305 51.7909 52.9708 53.0847 52.9708C54.3785 52.9708 55.6504 53.305 56.7772 53.9409C57.9039 54.5768 58.8473 55.4929 59.516 56.6005C60.1848 57.7081 60.5561 58.9696 60.5941 60.2629C60.6321 61.5561 60.3354 62.8373 59.7328 63.9822H70.5181V74.5822C69.5402 74.1324 68.4762 73.9007 67.3998 73.9029C65.4082 73.9043 63.4987 74.6964 62.0909 76.1052C60.6832 77.5139 59.8924 79.424 59.8924 81.4155Z" fill="#F4C23F"/>
<path d="M59.7329 63.9822C60.6548 62.2252 60.8442 60.1747 60.2596 58.2786C59.6751 56.3824 58.3641 54.7945 56.6129 53.8615C54.8618 52.9285 52.8126 52.7261 50.9128 53.2987C49.0129 53.8712 47.4167 55.172 46.4727 56.9173C47.874 56.0504 49.5214 55.668 51.1613 55.8288C52.8013 55.9897 54.343 56.6849 55.5492 57.8075C56.7554 58.9302 57.5594 60.418 57.8374 62.0422C58.1155 63.6664 57.8522 65.3369 57.0881 66.7969H67.8681V73.9184C68.7851 73.9724 69.6839 74.1976 70.5181 74.5822V63.9822H59.7329Z" fill="#FAD564"/>
<path d="M46.8174 95.4939C44.8208 95.4939 42.906 94.7008 41.4942 93.289C40.0824 91.8772 39.2893 89.9624 39.2893 87.9659V63.9822H35.6514V91.3208C35.6514 93.3174 36.4445 95.2322 37.8563 96.644C39.2681 98.0557 41.1828 98.8489 43.1794 98.8489H70.5181V95.4939H46.8174Z" fill="#F4A93F"/>
<path d="M105.385 63.9822V91.3208C105.385 93.3174 104.592 95.2322 103.18 96.644C101.768 98.0557 99.8533 98.8489 97.8567 98.8489H70.518V88.2489C69.5401 88.6986 68.4762 88.9304 67.3998 88.9281C65.4073 88.9281 63.4965 88.1366 62.0876 86.7277C60.6787 85.3188 59.8872 83.408 59.8872 81.4155C59.8872 79.4231 60.6787 77.5122 62.0876 76.1033C63.4965 74.6944 65.4073 73.9029 67.3998 73.9029C68.4762 73.9006 69.5401 74.1324 70.518 74.5821V63.9822H81.1129C80.6484 65.0035 80.4185 66.1159 80.4402 67.2376C80.4619 68.3594 80.7346 69.4621 81.2382 70.4647C81.7418 71.4673 82.4636 72.3443 83.3506 73.0314C84.2376 73.7185 85.2672 74.1983 86.3638 74.4354C87.4604 74.6725 88.5963 74.6609 89.6879 74.4016C90.7795 74.1423 91.7991 73.6417 92.6719 72.9367C93.5447 72.2317 94.2486 71.3402 94.7317 70.3276C95.2149 69.3149 95.4651 68.207 95.464 67.085C95.4641 66.0149 95.236 64.9571 94.7951 63.9822H105.385Z" fill="#DE3226"/>
<path d="M89.2583 74.4844C89.69 74.5589 90.1272 74.5968 90.5653 74.5976C91.821 74.5957 93.0562 74.2793 94.1582 73.6773C95.2601 73.0752 96.1938 72.2068 96.8738 71.1512C97.5538 70.0955 97.9586 68.8864 98.0512 67.6341C98.1438 66.3818 97.9212 65.1263 97.4038 63.9822H94.795C95.2359 64.9571 95.464 66.0149 95.4639 67.085C95.4639 70.7847 92.783 73.8618 89.2583 74.4844Z" fill="#B11A31"/>
<path d="M73.132 74.5821V63.9822H70.5181V73.9235C71.4222 73.9821 72.3081 74.2053 73.132 74.5821Z" fill="#B11A31"/>
<path d="M62.5012 81.4155C62.5009 79.6494 63.1227 77.9397 64.2576 76.5866C65.3924 75.2334 66.9677 74.3233 68.7068 74.0161C68.2751 73.9418 67.8379 73.9039 67.3998 73.9029C65.4073 73.9029 63.4965 74.6944 62.0876 76.1033C60.6787 77.5122 59.8872 79.423 59.8872 81.4155C59.8872 83.408 60.6787 85.3188 62.0876 86.7277C63.4965 88.1366 65.4073 88.9281 67.3998 88.9281C67.8379 88.9271 68.2751 88.8892 68.7068 88.8149C65.182 88.1923 62.5012 85.1152 62.5012 81.4155Z" fill="#B11A31"/>
<path d="M105.385 80.335C105.385 78.7464 104.097 77.4586 102.508 77.4586C100.92 77.4586 99.6318 78.7464 99.6318 80.335V88.8633C99.6318 90.4519 100.92 91.7397 102.508 91.7397C104.097 91.7397 105.385 90.4519 105.385 88.8633V80.335Z" fill="#F44533"/>
<path fill-rule="evenodd" clip-rule="evenodd" d="M146.469 79H-4.79443V78.3876H146.469V79Z" fill="url(#paint1_linear_991_1161)"/>
<g opacity="0.43" filter="url(#filter2_f_991_1161)">
<path d="M110.031 80.531C110.031 82.3912 89.1932 83.8992 63.4884 83.8992C37.7837 83.8992 16.9458 82.3912 16.9458 80.531C16.9458 78.6708 37.7837 77.1628 63.4884 77.1628C89.1932 77.1628 110.031 78.6708 110.031 80.531Z" fill="#481206"/>
</g>
</g>
<defs>
<filter id="filter0_i_991_1161" x="21.2329" y="13.4728" width="46.5269" height="45.0979" filterUnits="userSpaceOnUse" color-interpolation-filters="sRGB">
<feFlood flood-opacity="0" result="BackgroundImageFix"/>
<feBlend mode="normal" in="SourceGraphic" in2="BackgroundImageFix" result="shape"/>
<feColorMatrix in="SourceAlpha" type="matrix" values="0 0 0 0 0 0 0 0 0 0 0 0 0 0 0 0 0 0 127 0" result="hardAlpha"/>
<feOffset dx="1" dy="1"/>
<feGaussianBlur stdDeviation="1"/>
<feComposite in2="hardAlpha" operator="arithmetic" k2="-1" k3="1"/>
<feColorMatrix type="matrix" values="0 0 0 0 1 0 0 0 0 0.860319 0 0 0 0 0.50114 0 0 0 0.72 0"/>
<feBlend mode="normal" in2="shape" result="effect1_innerShadow_991_1161"/>
</filter>
<filter id="filter1_ii_991_1161" x="70.5181" y="29.1155" width="34.8667" height="47.4896" filterUnits="userSpaceOnUse" color-interpolation-filters="sRGB">
<feFlood flood-opacity="0" result="BackgroundImageFix"/>
<feBlend mode="normal" in="SourceGraphic" in2="BackgroundImageFix" result="shape"/>
<feColorMatrix in="SourceAlpha" type="matrix" values="0 0 0 0 0 0 0 0 0 0 0 0 0 0 0 0 0 0 127 0" result="hardAlpha"/>
<feOffset dx="3" dy="2"/>
<feComposite in2="hardAlpha" operator="arithmetic" k2="-1" k3="1"/>
<feColorMatrix type="matrix" values="0 0 0 0 0.271804 0 0 0 0 0.647072 0 0 0 0 0.868615 0 0 0 1 0"/>
<feBlend mode="normal" in2="shape" result="effect1_innerShadow_991_1161"/>
<feColorMatrix in="SourceAlpha" type="matrix" values="0 0 0 0 0 0 0 0 0 0 0 0 0 0 0 0 0 0 127 0" result="hardAlpha"/>
<feOffset dy="2"/>
<feGaussianBlur stdDeviation="1"/>
<feComposite in2="hardAlpha" operator="arithmetic" k2="-1" k3="1"/>
<feColorMatrix type="matrix" values="0 0 0 0 0.728422 0 0 0 0 0.885937 0 0 0 0 1 0 0 0 0.39 0"/>
<feBlend mode="normal" in2="effect1_innerShadow_991_1161" result="effect2_innerShadow_991_1161"/>
</filter>
<filter id="filter2_f_991_1161" x="2.9458" y="63.1628" width="121.085" height="34.7365" filterUnits="userSpaceOnUse" color-interpolation-filters="sRGB">
<feFlood flood-opacity="0" result="BackgroundImageFix"/>
<feBlend mode="normal" in="SourceGraphic" in2="BackgroundImageFix" result="shape"/>
<feGaussianBlur stdDeviation="7" result="effect1_foregroundBlur_991_1161"/>
</filter>
<linearGradient id="paint0_linear_991_1161" x1="43.9964" y1="13.4728" x2="43.9964" y2="57.5708" gradientUnits="userSpaceOnUse">
<stop stop-color="#F8881B"/>
<stop offset="1" stop-color="#F8501B"/>
</linearGradient>
<linearGradient id="paint1_linear_991_1161" x1="-4.79443" y1="78.9999" x2="142.182" y2="78.9999" gradientUnits="userSpaceOnUse">
<stop stop-color="white" stop-opacity="0"/>
<stop offset="0.49" stop-color="white"/>
<stop offset="1" stop-color="white" stop-opacity="0"/>
</linearGradient>
<clipPath id="clip0_991_1161">
<rect width="136.566" height="79" fill="white" transform="translate(0.717285)"/>
</clipPath>
</defs>
</svg>
