<svg width="555" height="53" viewBox="0 0 555 53" fill="none" xmlns="http://www.w3.org/2000/svg">
<g clip-path="url(#clip0_991_1269)">
<ellipse cx="26.7209" cy="29.5646" rx="26.7209" ry="29.5646" transform="matrix(1 0 0 -1 0 28.1224)" fill="white"/>
<ellipse cx="26.5403" cy="29.5646" rx="26.5403" ry="29.5646" transform="matrix(1 0 0 -1 137.577 28.1224)" fill="white"/>
<ellipse cx="26.7209" cy="29.5646" rx="26.7209" ry="29.5646" transform="matrix(1 0 0 -1 275.153 28.1224)" fill="white"/>
<ellipse cx="15.527" cy="17.4864" rx="15.527" ry="17.4864" transform="matrix(1 0 0 -1 53.4419 15.8639)" fill="white"/>
<ellipse cx="15.8881" cy="17.4864" rx="15.8881" ry="17.4864" transform="matrix(1 0 0 -1 190.657 15.8639)" fill="white"/>
<ellipse cx="15.527" cy="17.4864" rx="15.527" ry="17.4864" transform="matrix(1 0 0 -1 328.595 15.8639)" fill="white"/>
<ellipse cx="17.8741" cy="20.1905" rx="17.8741" ry="20.1905" transform="matrix(1 0 0 -1 84.4956 21.2721)" fill="white"/>
<ellipse cx="17.8741" cy="20.1905" rx="17.8741" ry="20.1905" transform="matrix(1 0 0 -1 222.434 21.2721)" fill="white"/>
<ellipse cx="17.8741" cy="20.1905" rx="17.8741" ry="20.1905" transform="matrix(1 0 0 -1 359.648 21.2721)" fill="white"/>
<ellipse cx="8.66623" cy="9.73469" rx="8.66623" ry="9.73469" transform="matrix(1 0 0 -1 120.244 10.8163)" fill="white"/>
<ellipse cx="8.48569" cy="9.73469" rx="8.48569" ry="9.73469" transform="matrix(1 0 0 -1 258.182 10.8163)" fill="white"/>
<ellipse cx="8.66623" cy="9.73469" rx="8.66623" ry="9.73469" transform="matrix(1 0 0 -1 395.396 10.8163)" fill="white"/>
<ellipse cx="46.581" cy="51.9184" rx="46.581" ry="51.9184" transform="matrix(1 0 0 -1 461.838 53)" fill="white"/>
<ellipse cx="24.5543" cy="27.4014" rx="24.5543" ry="27.4014" transform="matrix(1 0 0 -1 412.729 28.483)" fill="white"/>
<ellipse cx="26.7209" cy="26.5" rx="26.7209" ry="26.5" transform="matrix(1 0 0 -1 0 25.238)" fill="white"/>
<ellipse cx="26.5403" cy="26.5" rx="26.5403" ry="26.5" transform="matrix(1 0 0 -1 137.577 25.238)" fill="white"/>
<ellipse cx="26.7209" cy="26.5" rx="26.7209" ry="26.5" transform="matrix(1 0 0 -1 275.153 25.238)" fill="white"/>
<ellipse cx="15.527" cy="15.6837" rx="15.527" ry="15.6837" transform="matrix(1 0 0 -1 53.4419 14.4218)" fill="white"/>
<ellipse cx="15.8881" cy="15.6837" rx="15.8881" ry="15.6837" transform="matrix(1 0 0 -1 190.657 14.4218)" fill="white"/>
<ellipse cx="15.527" cy="15.6837" rx="15.527" ry="15.6837" transform="matrix(1 0 0 -1 328.595 14.4218)" fill="white"/>
<ellipse cx="17.8741" cy="18.0272" rx="17.8741" ry="18.0272" transform="matrix(1 0 0 -1 84.4956 19.1089)" fill="white"/>
<ellipse cx="17.8741" cy="18.0272" rx="17.8741" ry="18.0272" transform="matrix(1 0 0 -1 222.434 19.1089)" fill="white"/>
<ellipse cx="17.8741" cy="18.0272" rx="17.8741" ry="18.0272" transform="matrix(1 0 0 -1 359.648 19.1089)" fill="white"/>
<ellipse cx="8.66623" cy="8.65306" rx="8.66623" ry="8.65306" transform="matrix(1 0 0 -1 120.244 9.73474)" fill="white"/>
<ellipse cx="8.48569" cy="8.65306" rx="8.48569" ry="8.65306" transform="matrix(1 0 0 -1 258.182 9.73474)" fill="white"/>
<ellipse cx="8.66623" cy="8.65306" rx="8.66623" ry="8.65306" transform="matrix(1 0 0 -1 395.396 9.73474)" fill="white"/>
<ellipse cx="46.581" cy="46.5102" rx="46.581" ry="46.5102" transform="matrix(1 0 0 -1 461.838 47.5918)" fill="white"/>
<ellipse cx="24.5543" cy="24.517" rx="24.5543" ry="24.517" transform="matrix(1 0 0 -1 412.729 25.5986)" fill="white"/>
</g>
<defs>
<clipPath id="clip0_991_1269">
<rect width="555" height="53" fill="white" transform="matrix(1 0 0 -1 0 53)"/>
</clipPath>
</defs>
</svg>
