<svg width="775" height="69" viewBox="0 0 775 69" fill="none" xmlns="http://www.w3.org/2000/svg">
<g clip-path="url(#clip0_993_1544)">
<ellipse cx="37.3129" cy="37.5667" rx="37.3129" ry="37.5667" transform="matrix(-1 0 0 1 775 31.689)" fill="#D8EFF9"/>
<ellipse cx="37.0608" cy="37.5667" rx="37.0608" ry="37.5667" transform="matrix(-1 0 0 1 582.889 31.689)" fill="#D8EFF9"/>
<ellipse cx="37.3129" cy="37.5667" rx="37.3129" ry="37.5667" transform="matrix(-1 0 0 1 390.777 31.689)" fill="#D8EFF9"/>
<ellipse cx="21.6818" cy="22.2333" rx="21.6818" ry="22.2333" transform="matrix(-1 0 0 1 700.374 47.0225)" fill="#D8EFF9"/>
<ellipse cx="22.1861" cy="22.2333" rx="22.1861" ry="22.2333" transform="matrix(-1 0 0 1 508.768 47.0225)" fill="#D8EFF9"/>
<ellipse cx="21.6818" cy="22.2333" rx="21.6818" ry="22.2333" transform="matrix(-1 0 0 1 316.151 47.0225)" fill="#D8EFF9"/>
<ellipse cx="24.9593" cy="25.5556" rx="24.9593" ry="25.5556" transform="matrix(-1 0 0 1 657.011 40.3779)" fill="#D8EFF9"/>
<ellipse cx="24.9593" cy="25.5556" rx="24.9593" ry="25.5556" transform="matrix(-1 0 0 1 464.395 40.3779)" fill="#D8EFF9"/>
<ellipse cx="24.9593" cy="25.5556" rx="24.9593" ry="25.5556" transform="matrix(-1 0 0 1 272.788 40.3779)" fill="#D8EFF9"/>
<ellipse cx="12.1015" cy="12.2667" rx="12.1015" ry="12.2667" transform="matrix(-1 0 0 1 607.092 53.6665)" fill="#D8EFF9"/>
<ellipse cx="11.8494" cy="12.2667" rx="11.8494" ry="12.2667" transform="matrix(-1 0 0 1 414.476 53.6665)" fill="#D8EFF9"/>
<ellipse cx="12.1015" cy="12.2667" rx="12.1015" ry="12.2667" transform="matrix(-1 0 0 1 222.869 53.6665)" fill="#D8EFF9"/>
<ellipse cx="65.0455" cy="65.9333" rx="65.0455" ry="65.9333" transform="matrix(-1 0 0 1 130.091 0)" fill="#D8EFF9"/>
<ellipse cx="34.2876" cy="34.7556" rx="34.2876" ry="34.7556" transform="matrix(-1 0 0 1 198.666 31.1777)" fill="#D8EFF9"/>
</g>
<defs>
<clipPath id="clip0_993_1544">
<rect width="775" height="69" fill="white" transform="matrix(-1 0 0 1 775 0)"/>
</clipPath>
</defs>
</svg>
