<svg width="163" height="75" viewBox="0 0 163 75" fill="none" xmlns="http://www.w3.org/2000/svg">
<g clip-path="url(#clip0_991_913)">
<g filter="url(#filter0_f_991_913)">
<path d="M50.1992 26.3527C50.2585 18.6031 60.1997 15.4568 64.7069 21.7612L76.0395 37.6126C78.0552 40.432 81.657 41.6329 84.9613 40.5871L103.539 34.7075C110.928 32.3691 116.992 40.8515 112.389 47.0862L100.815 62.7626C98.7566 65.5508 98.7276 69.3475 100.743 72.1669L112.076 88.0184C116.583 94.3227 110.39 102.711 103.038 100.26L84.5522 94.0974C81.2643 93.0013 77.6445 94.1469 75.586 96.9351L64.0123 112.612C59.4093 118.846 49.5173 115.548 49.5766 107.799L49.7255 88.3134C49.752 84.8477 47.5439 81.7591 44.256 80.663L25.7704 74.5C18.4184 72.0489 18.4982 61.6219 25.8867 59.2835L44.4644 53.4039C47.7687 52.3582 50.0238 49.3037 50.0502 45.838L50.1992 26.3527Z" fill="url(#paint0_linear_991_913)"/>
</g>
<g filter="url(#filter1_iii_991_913)">
<path d="M64.1282 19.7362C64.9422 12.0293 75.1427 9.86657 79.0142 16.5801L88.7485 33.4603C90.4799 36.4626 93.9476 38.0087 97.338 37.2898L116.4 33.2482C123.981 31.6408 129.19 40.6738 124.002 46.4303L110.956 60.9045C108.636 63.4789 108.237 67.2547 109.968 70.257L119.702 87.1373C123.574 93.8507 116.593 101.596 109.515 98.4404L91.7174 90.5057C88.5519 89.0944 84.8377 89.8819 82.5173 92.4563L69.4713 106.93C64.2828 112.687 54.7592 108.441 55.5732 100.734L57.6199 81.3561C57.9839 77.9094 56.0872 74.6203 52.9218 73.2091L35.1246 65.2744C28.0464 62.1186 29.1417 51.749 36.7229 50.1416L55.785 46.1C59.1755 45.3812 61.7175 42.5609 62.0815 39.1143L64.1282 19.7362Z" fill="url(#paint1_linear_991_913)"/>
</g>
<g filter="url(#filter2_d_991_913)">
<path fill-rule="evenodd" clip-rule="evenodd" d="M106.583 32.5313C108.296 34.244 108.296 37.0208 106.583 38.7335L76.2488 69.0676L65.2847 58.1035C63.572 56.3908 63.572 53.614 65.2847 51.9013C66.9974 50.1886 69.7743 50.1886 71.487 51.9013L76.2488 56.6631L100.381 32.5313C102.093 30.8186 104.87 30.8186 106.583 32.5313Z" fill="url(#paint2_linear_991_913)" shape-rendering="crispEdges"/>
</g>
<line x1="-7.07812" y1="74.7915" x2="173.464" y2="74.7915" stroke="url(#paint3_linear_991_913)"/>
<g opacity="0.43" filter="url(#filter3_f_991_913)">
<ellipse cx="74.4217" cy="77.1188" rx="55.5516" ry="4.02018" fill="#481206"/>
</g>
</g>
<defs>
<filter id="filter0_f_991_913" x="5.30078" y="3.39917" width="123.688" height="127.477" filterUnits="userSpaceOnUse" color-interpolation-filters="sRGB">
<feFlood flood-opacity="0" result="BackgroundImageFix"/>
<feBlend mode="normal" in="SourceGraphic" in2="BackgroundImageFix" result="shape"/>
<feGaussianBlur stdDeviation="7.5" result="effect1_foregroundBlur_991_913"/>
</filter>
<filter id="filter1_iii_991_913" x="30.3804" y="6.56909" width="97.7104" height="107.029" filterUnits="userSpaceOnUse" color-interpolation-filters="sRGB">
<feFlood flood-opacity="0" result="BackgroundImageFix"/>
<feBlend mode="normal" in="SourceGraphic" in2="BackgroundImageFix" result="shape"/>
<feColorMatrix in="SourceAlpha" type="matrix" values="0 0 0 0 0 0 0 0 0 0 0 0 0 0 0 0 0 0 127 0" result="hardAlpha"/>
<feOffset dy="-6"/>
<feGaussianBlur stdDeviation="3.5"/>
<feComposite in2="hardAlpha" operator="arithmetic" k2="-1" k3="1"/>
<feColorMatrix type="matrix" values="0 0 0 0 0.660314 0 0 0 0 0.078638 0 0 0 0 0.078638 0 0 0 0.4 0"/>
<feBlend mode="normal" in2="shape" result="effect1_innerShadow_991_913"/>
<feColorMatrix in="SourceAlpha" type="matrix" values="0 0 0 0 0 0 0 0 0 0 0 0 0 0 0 0 0 0 127 0" result="hardAlpha"/>
<feOffset dx="2" dy="4"/>
<feGaussianBlur stdDeviation="6.5"/>
<feComposite in2="hardAlpha" operator="arithmetic" k2="-1" k3="1"/>
<feColorMatrix type="matrix" values="0 0 0 0 1 0 0 0 0 1 0 0 0 0 1 0 0 0 0.25 0"/>
<feBlend mode="normal" in2="effect1_innerShadow_991_913" result="effect2_innerShadow_991_913"/>
<feColorMatrix in="SourceAlpha" type="matrix" values="0 0 0 0 0 0 0 0 0 0 0 0 0 0 0 0 0 0 127 0" result="hardAlpha"/>
<feOffset dx="1" dy="1"/>
<feGaussianBlur stdDeviation="1"/>
<feComposite in2="hardAlpha" operator="arithmetic" k2="-1" k3="1"/>
<feColorMatrix type="matrix" values="0 0 0 0 1 0 0 0 0 1 0 0 0 0 1 0 0 0 1 0"/>
<feBlend mode="normal" in2="effect2_innerShadow_991_913" result="effect3_innerShadow_991_913"/>
</filter>
<filter id="filter2_d_991_913" x="61" y="31.2468" width="49.8677" height="44.8208" filterUnits="userSpaceOnUse" color-interpolation-filters="sRGB">
<feFlood flood-opacity="0" result="BackgroundImageFix"/>
<feColorMatrix in="SourceAlpha" type="matrix" values="0 0 0 0 0 0 0 0 0 0 0 0 0 0 0 0 0 0 127 0" result="hardAlpha"/>
<feOffset dy="4"/>
<feGaussianBlur stdDeviation="1.5"/>
<feComposite in2="hardAlpha" operator="out"/>
<feColorMatrix type="matrix" values="0 0 0 0 0 0 0 0 0 0 0 0 0 0 0 0 0 0 0.09 0"/>
<feBlend mode="normal" in2="BackgroundImageFix" result="effect1_dropShadow_991_913"/>
<feBlend mode="normal" in="SourceGraphic" in2="effect1_dropShadow_991_913" result="shape"/>
</filter>
<filter id="filter3_f_991_913" x="4.87012" y="59.0986" width="139.103" height="36.0404" filterUnits="userSpaceOnUse" color-interpolation-filters="sRGB">
<feFlood flood-opacity="0" result="BackgroundImageFix"/>
<feBlend mode="normal" in="SourceGraphic" in2="BackgroundImageFix" result="shape"/>
<feGaussianBlur stdDeviation="7" result="effect1_foregroundBlur_991_913"/>
</filter>
<linearGradient id="paint0_linear_991_913" x1="50.3874" y1="1.73193" x2="76.98" y2="86.621" gradientUnits="userSpaceOnUse">
<stop stop-color="#D8EFF9" stop-opacity="0"/>
<stop offset="1" stop-color="#3D8FB2"/>
</linearGradient>
<linearGradient id="paint1_linear_991_913" x1="66.7144" y1="-4.74904" x2="93.0605" y2="89.5448" gradientUnits="userSpaceOnUse">
<stop stop-color="#FFF740"/>
<stop offset="1" stop-color="#FB2929"/>
</linearGradient>
<linearGradient id="paint2_linear_991_913" x1="85.9338" y1="32.5313" x2="85.9338" y2="62.8654" gradientUnits="userSpaceOnUse">
<stop stop-color="white"/>
<stop offset="1" stop-color="white" stop-opacity="0.68"/>
</linearGradient>
<linearGradient id="paint3_linear_991_913" x1="-7.07813" y1="75.2915" x2="168.348" y2="75.2915" gradientUnits="userSpaceOnUse">
<stop stop-color="white" stop-opacity="0"/>
<stop offset="0.49" stop-color="white"/>
<stop offset="1" stop-color="white" stop-opacity="0"/>
</linearGradient>
<clipPath id="clip0_991_913">
<rect width="163" height="75" fill="white"/>
</clipPath>
</defs>
</svg>
