<svg width="555" height="53" viewBox="0 0 555 53" fill="none" xmlns="http://www.w3.org/2000/svg">
<g clip-path="url(#clip0_991_1070)">
<ellipse cx="26.7209" cy="54.4422" rx="26.7209" ry="29.5646" fill="white"/>
<ellipse cx="164.117" cy="54.4422" rx="26.5403" ry="29.5646" fill="white"/>
<ellipse cx="301.874" cy="54.4422" rx="26.7209" ry="29.5646" fill="white"/>
<ellipse cx="68.9684" cy="54.6224" rx="15.527" ry="17.4864" fill="white"/>
<ellipse cx="206.545" cy="54.6224" rx="15.8881" ry="17.4864" fill="white"/>
<ellipse cx="344.122" cy="54.6224" rx="15.527" ry="17.4864" fill="white"/>
<ellipse cx="102.37" cy="51.9184" rx="17.8741" ry="20.1905" fill="white"/>
<ellipse cx="240.308" cy="51.9184" rx="17.8741" ry="20.1905" fill="white"/>
<ellipse cx="377.523" cy="51.9184" rx="17.8741" ry="20.1905" fill="white"/>
<ellipse cx="128.91" cy="51.9184" rx="8.66623" ry="9.73469" fill="white"/>
<ellipse cx="266.667" cy="51.9184" rx="8.48569" ry="9.73469" fill="white"/>
<ellipse cx="404.063" cy="51.9184" rx="8.66623" ry="9.73469" fill="white"/>
<ellipse cx="508.419" cy="51.9184" rx="46.581" ry="51.9184" fill="white"/>
<ellipse cx="437.284" cy="51.9184" rx="24.5543" ry="27.4014" fill="white"/>
<ellipse cx="26.7209" cy="54.2619" rx="26.7209" ry="26.5" fill="white"/>
<ellipse cx="164.117" cy="54.2619" rx="26.5403" ry="26.5" fill="white"/>
<ellipse cx="301.874" cy="54.2619" rx="26.7209" ry="26.5" fill="white"/>
<ellipse cx="68.9684" cy="54.2619" rx="15.527" ry="15.6837" fill="white"/>
<ellipse cx="206.545" cy="54.2619" rx="15.8881" ry="15.6837" fill="white"/>
<ellipse cx="344.122" cy="54.2619" rx="15.527" ry="15.6837" fill="white"/>
<ellipse cx="102.37" cy="51.9184" rx="17.8741" ry="18.0272" fill="white"/>
<ellipse cx="240.308" cy="51.9184" rx="17.8741" ry="18.0272" fill="white"/>
<ellipse cx="377.523" cy="51.9184" rx="17.8741" ry="18.0272" fill="white"/>
<ellipse cx="128.91" cy="51.9184" rx="8.66623" ry="8.65306" fill="white"/>
<ellipse cx="266.667" cy="51.9184" rx="8.48569" ry="8.65306" fill="white"/>
<ellipse cx="404.063" cy="51.9184" rx="8.66623" ry="8.65306" fill="white"/>
<ellipse cx="508.419" cy="51.9183" rx="46.581" ry="46.5102" fill="white"/>
<ellipse cx="437.284" cy="51.9184" rx="24.5543" ry="24.517" fill="white"/>
</g>
<defs>
<clipPath id="clip0_991_1070">
<rect width="555" height="53" fill="white"/>
</clipPath>
</defs>
</svg>
