<svg width="52" height="14" viewBox="0 0 52 14" fill="none" xmlns="http://www.w3.org/2000/svg">
<path d="M1.47559 9.42734C1.55585 6.53767 1.91004 -0.225926 4.04289 5.30614C8.25853 16.2405 7.04219 3.37027 9.76301 1.81552C12.8122 0.0731099 6.9865 11.4807 10.3936 12.3324C13.2175 13.0384 14.5253 1.91582 14.8301 4.8107C15.2419 8.72339 18.8304 3.97948 20.5277 2.356C21.0851 1.82282 21.2039 8.09537 21.8113 7.06272C25.1828 1.33116 26.2265 3.79098 26.6081 4.63054C29.239 10.4186 31.936 2.59384 32.2832 6.49971C32.5926 9.98064 32.8994 3.83639 34.31 4.65306C34.6123 4.82805 36.2463 9.47333 36.2467 9.47238C37.8243 5.96668 37.2744 4.72741 39.5797 9.11205C41.2832 12.352 44.1666 3.0353 47.1915 2.22088C49.285 1.65727 49.322 6.00202 50.5245 7.80588" stroke="white" stroke-width="2" stroke-linecap="round"/>
</svg>
