<svg width="1537" height="135" viewBox="0 0 1537 135" fill="none" xmlns="http://www.w3.org/2000/svg">
<g clip-path="url(#clip0_965_238)">
<ellipse cx="1463" cy="-0.5" rx="74" ry="73.5" transform="rotate(180 1463 -0.5)" fill="white"/>
<circle cx="1082.5" cy="-0.5" r="73.5" transform="rotate(180 1082.5 -0.5)" fill="white"/>
<ellipse cx="701" cy="-0.5" rx="74" ry="73.5" transform="rotate(180 701 -0.5)" fill="white"/>
<ellipse cx="1346" cy="-0.5" rx="43" ry="43.5" transform="rotate(180 1346 -0.5)" fill="white"/>
<ellipse cx="965" cy="-0.5" rx="44" ry="43.5" transform="rotate(180 965 -0.5)" fill="white"/>
<ellipse cx="584" cy="-0.5" rx="43" ry="43.5" transform="rotate(180 584 -0.5)" fill="white"/>
<ellipse cx="1253.5" cy="6" rx="49.5" ry="50" transform="rotate(180 1253.5 6)" fill="white"/>
<ellipse cx="871.5" cy="6" rx="49.5" ry="50" transform="rotate(180 871.5 6)" fill="white"/>
<ellipse cx="491.5" cy="6" rx="49.5" ry="50" transform="rotate(180 491.5 6)" fill="white"/>
<circle cx="1180" cy="6" r="24" transform="rotate(180 1180 6)" fill="white"/>
<ellipse cx="798.5" cy="6" rx="23.5" ry="24" transform="rotate(180 798.5 6)" fill="white"/>
<circle cx="418" cy="6" r="24" transform="rotate(180 418 6)" fill="white"/>
<circle cx="129" cy="6" r="129" transform="rotate(180 129 6)" fill="white"/>
<circle cx="326" cy="6" r="68" transform="rotate(180 326 6)" fill="white"/>
</g>
<defs>
<clipPath id="clip0_965_238">
<rect width="1537" height="135" fill="white" transform="matrix(-1 0 0 -1 1537 135)"/>
</clipPath>
</defs>
</svg>
