<svg width="1537" height="135" viewBox="0 0 1537 135" fill="none" xmlns="http://www.w3.org/2000/svg">
<g clip-path="url(#clip0_965_378)">
<ellipse cx="74" cy="73.5" rx="74" ry="73.5" transform="matrix(-1 0 0 1 1537 62)" fill="#D8EFF9"/>
<circle cx="73.5" cy="73.5" r="73.5" transform="matrix(-1 0 0 1 1156 62)" fill="#D8EFF9"/>
<ellipse cx="74" cy="73.5" rx="74" ry="73.5" transform="matrix(-1 0 0 1 775 62)" fill="#D8EFF9"/>
<ellipse cx="43" cy="43.5" rx="43" ry="43.5" transform="matrix(-1 0 0 1 1389 92)" fill="#D8EFF9"/>
<ellipse cx="44" cy="43.5" rx="44" ry="43.5" transform="matrix(-1 0 0 1 1009 92)" fill="#D8EFF9"/>
<ellipse cx="43" cy="43.5" rx="43" ry="43.5" transform="matrix(-1 0 0 1 627 92)" fill="#D8EFF9"/>
<ellipse cx="49.5" cy="50" rx="49.5" ry="50" transform="matrix(-1 0 0 1 1303 79)" fill="#D8EFF9"/>
<ellipse cx="49.5" cy="50" rx="49.5" ry="50" transform="matrix(-1 0 0 1 921 79)" fill="#D8EFF9"/>
<ellipse cx="49.5" cy="50" rx="49.5" ry="50" transform="matrix(-1 0 0 1 541 79)" fill="#D8EFF9"/>
<circle cx="24" cy="24" r="24" transform="matrix(-1 0 0 1 1204 105)" fill="#D8EFF9"/>
<ellipse cx="23.5" cy="24" rx="23.5" ry="24" transform="matrix(-1 0 0 1 822 105)" fill="#D8EFF9"/>
<circle cx="24" cy="24" r="24" transform="matrix(-1 0 0 1 442 105)" fill="#D8EFF9"/>
<circle cx="129" cy="129" r="129" transform="matrix(-1 0 0 1 258 0)" fill="#D8EFF9"/>
<circle cx="68" cy="68" r="68" transform="matrix(-1 0 0 1 394 61)" fill="#D8EFF9"/>
</g>
<defs>
<clipPath id="clip0_965_378">
<rect width="1537" height="135" fill="white" transform="matrix(-1 0 0 1 1537 0)"/>
</clipPath>
</defs>
</svg>
