<svg width="1537" height="147" viewBox="0 0 1537 147" fill="none" xmlns="http://www.w3.org/2000/svg">
<g clip-path="url(#clip0_965_321)">
<ellipse cx="74" cy="151" rx="74" ry="82" fill="#F5FCFF"/>
<ellipse cx="454.5" cy="151" rx="73.5" ry="82" fill="#F5FCFF"/>
<ellipse cx="836" cy="151" rx="74" ry="82" fill="#F5FCFF"/>
<ellipse cx="191" cy="151.5" rx="43" ry="48.5" fill="#F5FCFF"/>
<ellipse cx="572" cy="151.5" rx="44" ry="48.5" fill="#F5FCFF"/>
<ellipse cx="953" cy="151.5" rx="43" ry="48.5" fill="#F5FCFF"/>
<ellipse cx="283.5" cy="144" rx="49.5" ry="56" fill="#F5FCFF"/>
<ellipse cx="665.5" cy="144" rx="49.5" ry="56" fill="#F5FCFF"/>
<ellipse cx="1045.5" cy="144" rx="49.5" ry="56" fill="#F5FCFF"/>
<ellipse cx="357" cy="144" rx="24" ry="27" fill="#F5FCFF"/>
<ellipse cx="738.5" cy="144" rx="23.5" ry="27" fill="#F5FCFF"/>
<ellipse cx="1119" cy="144" rx="24" ry="27" fill="#F5FCFF"/>
<ellipse cx="1408" cy="144" rx="129" ry="144" fill="#F5FCFF"/>
<ellipse cx="1211" cy="144" rx="68" ry="76" fill="#F5FCFF"/>
<ellipse cx="74" cy="150.5" rx="74" ry="73.5" fill="#D8EFF9"/>
<circle cx="454.5" cy="150.5" r="73.5" fill="#D8EFF9"/>
<ellipse cx="836" cy="150.5" rx="74" ry="73.5" fill="#D8EFF9"/>
<ellipse cx="191" cy="150.5" rx="43" ry="43.5" fill="#D8EFF9"/>
<ellipse cx="572" cy="150.5" rx="44" ry="43.5" fill="#D8EFF9"/>
<ellipse cx="953" cy="150.5" rx="43" ry="43.5" fill="#D8EFF9"/>
<ellipse cx="283.5" cy="144" rx="49.5" ry="50" fill="#D8EFF9"/>
<ellipse cx="665.5" cy="144" rx="49.5" ry="50" fill="#D8EFF9"/>
<ellipse cx="1045.5" cy="144" rx="49.5" ry="50" fill="#D8EFF9"/>
<circle cx="357" cy="144" r="24" fill="#D8EFF9"/>
<ellipse cx="738.5" cy="144" rx="23.5" ry="24" fill="#D8EFF9"/>
<circle cx="1119" cy="144" r="24" fill="#D8EFF9"/>
<circle cx="1408" cy="144" r="129" fill="#D8EFF9"/>
<circle cx="1211" cy="144" r="68" fill="#D8EFF9"/>
</g>
<defs>
<clipPath id="clip0_965_321">
<rect width="1537" height="147" fill="white"/>
</clipPath>
</defs>
</svg>
